# This file uses centimeters as units for non-parametric coordinates.

mtllib basket.mtl
g default
v -0.715001 -1.299407 -0.385580
v 1.113666 -1.299407 -0.385580
v -0.715001 -1.245505 -0.385580
v 1.113666 -1.245505 -0.385580
v -0.715001 -1.245505 -1.186677
v 1.113666 -1.245505 -1.186677
v -0.715001 -1.299407 -1.186677
v 1.113666 -1.299407 -1.186677
v 1.069850 -1.245505 -1.186677
v 1.069850 -1.299407 -1.186677
v 1.069850 -1.299407 -0.385580
v 1.069850 -1.245505 -0.385580
v -0.676910 -1.245505 -1.186677
v -0.676910 -1.299407 -1.186677
v -0.676910 -1.299407 -0.385580
v -0.676910 -1.245505 -0.385580
v -0.715001 -1.245505 -1.125231
v -0.715001 -1.299407 -1.125231
v -0.676910 -1.299407 -1.125231
v 1.069850 -1.299407 -1.125231
v 1.113666 -1.299407 -1.125231
v 1.113666 -1.245505 -1.125231
v 1.069850 -1.245505 -1.125231
v -0.676910 -1.245505 -1.125231
v -0.715001 -1.127595 -0.385580
v -0.715001 -1.009685 -0.385580
v -0.715001 -0.891776 -0.385580
v -0.715001 -0.773866 -0.385580
v -0.715001 -0.655956 -0.385580
v -0.676910 -1.127595 -0.385580
v -0.676910 -1.009685 -0.385580
v -0.676910 -0.891776 -0.385580
v -0.676910 -0.773866 -0.385580
v -0.676910 -0.655956 -0.385580
v -0.676910 -1.127595 -1.125231
v -0.676910 -1.009685 -1.125231
v -0.676910 -0.891776 -1.125231
v -0.676910 -0.773866 -1.125231
v -0.676910 -0.655956 -1.125231
v -0.715001 -1.127595 -1.125231
v -0.715001 -1.009685 -1.125231
v -0.715001 -0.891776 -1.125231
v -0.715001 -0.773866 -1.125231
v -0.715001 -0.655956 -1.125231
v 1.069850 -1.127595 -0.385580
v 1.069850 -1.009685 -0.385580
v 1.069850 -0.891776 -0.385580
v 1.069850 -0.773866 -0.385580
v 1.069850 -0.655956 -0.385580
v 1.069850 -1.127595 -1.125231
v 1.069850 -1.009685 -1.125231
v 1.069850 -0.891776 -1.125231
v 1.069850 -0.773866 -1.125231
v 1.069850 -0.655956 -1.125231
v 1.113666 -1.127595 -0.385580
v 1.113666 -1.009685 -0.385580
v 1.113666 -0.891776 -0.385580
v 1.113666 -0.773866 -0.385580
v 1.113666 -0.655956 -0.385580
v 1.113666 -1.127595 -1.125231
v 1.113666 -1.009685 -1.125231
v 1.113666 -0.891776 -1.125231
v 1.113666 -0.773866 -1.125231
v 1.113666 -0.655956 -1.125231
v 1.069850 -1.127595 -1.186677
v 1.069850 -1.009685 -1.186677
v 1.069850 -0.891776 -1.186677
v 1.069850 -0.773866 -1.186677
v 1.069850 -0.655956 -1.186677
v 1.113666 -1.127595 -1.186677
v 1.113666 -1.009685 -1.186677
v 1.113666 -0.891776 -1.186677
v 1.113666 -0.773866 -1.186677
v 1.113666 -0.655956 -1.186677
v -0.676910 -1.127595 -1.186677
v -0.676910 -1.009685 -1.186677
v -0.676910 -0.891776 -1.186677
v -0.676910 -0.773866 -1.186677
v -0.676910 -0.655956 -1.186677
v -0.715001 -1.127595 -1.186677
v -0.715001 -1.009685 -1.186677
v -0.715001 -0.891776 -1.186677
v -0.715001 -0.773866 -1.186677
v -0.715001 -0.655956 -1.186677
vt 0.375000 0.000000
vt 0.625000 0.000000
vt 0.375000 0.250000
vt 0.625000 0.250000
vt 0.375000 0.500000
vt 0.625000 0.500000
vt 0.375000 0.750000
vt 0.625000 0.750000
vt 0.375000 1.000000
vt 0.625000 1.000000
vt 0.875000 0.000000
vt 0.875000 0.250000
vt 0.125000 0.000000
vt 0.125000 0.250000
vt 0.619010 0.500000
vt 0.619010 0.750000
vt 0.619010 0.000000
vt 0.619010 1.000000
vt 0.619010 0.250000
vt 0.380208 0.500000
vt 0.380208 0.750000
vt 0.380208 0.000000
vt 0.380208 1.000000
vt 0.380208 0.250000
vt 0.144176 0.250000
vt 0.375000 0.480824
vt 0.144176 0.000000
vt 0.375000 0.769176
vt 0.380208 0.769176
vt 0.619010 0.769176
vt 0.625000 0.769176
vt 0.855824 0.000000
vt 0.625000 0.480824
vt 0.855824 0.250000
vt 0.619010 0.480824
vt 0.380208 0.480824
vt 0.375000 0.250000
vt 0.375000 0.250000
vt 0.375000 0.250000
vt 0.375000 0.250000
vt 0.375000 0.250000
vt 0.380208 0.250000
vt 0.380208 0.250000
vt 0.380208 0.250000
vt 0.380208 0.250000
vt 0.380208 0.250000
vt 0.380208 0.480824
vt 0.380208 0.480824
vt 0.380208 0.480824
vt 0.380208 0.480824
vt 0.380208 0.480824
vt 0.375000 0.480824
vt 0.375000 0.480824
vt 0.375000 0.480824
vt 0.375000 0.480824
vt 0.375000 0.480824
vt 0.619010 0.480824
vt 0.619010 0.480824
vt 0.619010 0.480824
vt 0.619010 0.480824
vt 0.619010 0.480824
vt 0.619010 0.250000
vt 0.619010 0.250000
vt 0.619010 0.250000
vt 0.619010 0.250000
vt 0.619010 0.250000
vt 0.625000 0.250000
vt 0.625000 0.250000
vt 0.625000 0.250000
vt 0.625000 0.250000
vt 0.625000 0.250000
vt 0.625000 0.480824
vt 0.625000 0.480824
vt 0.625000 0.480824
vt 0.625000 0.480824
vt 0.625000 0.480824
vt 0.625000 0.500000
vt 0.625000 0.500000
vt 0.625000 0.500000
vt 0.625000 0.500000
vt 0.625000 0.500000
vt 0.619010 0.500000
vt 0.619010 0.500000
vt 0.619010 0.500000
vt 0.619010 0.500000
vt 0.619010 0.500000
vt 0.380208 0.500000
vt 0.380208 0.500000
vt 0.380208 0.500000
vt 0.380208 0.500000
vt 0.380208 0.500000
vt 0.375000 0.500000
vt 0.375000 0.500000
vt 0.375000 0.500000
vt 0.375000 0.500000
vt 0.375000 0.500000
vn 0.000000 0.000000 1.000000
vn 0.000000 0.000000 1.000000
vn 0.000000 0.000000 1.000000
vn 0.000000 0.000000 1.000000
vn 0.000000 1.000000 0.000000
vn 0.000000 1.000000 0.000000
vn 0.000000 1.000000 0.000000
vn 0.000000 1.000000 0.000000
vn 0.000000 0.000000 -1.000000
vn 0.000000 0.000000 -1.000000
vn 0.000000 0.000000 -1.000000
vn 0.000000 0.000000 -1.000000
vn 0.000000 -1.000000 0.000000
vn 0.000000 -1.000000 0.000000
vn 0.000000 -1.000000 0.000000
vn 0.000000 -1.000000 0.000000
vn 1.000000 0.000000 0.000000
vn 1.000000 0.000000 0.000000
vn 1.000000 0.000000 0.000000
vn 1.000000 0.000000 0.000000
vn -1.000000 0.000000 0.000000
vn -1.000000 0.000000 0.000000
vn -1.000000 0.000000 0.000000
vn -1.000000 0.000000 0.000000
vn 0.000000 0.000000 -1.000000
vn 0.000000 0.000000 -1.000000
vn 0.000000 0.000000 -1.000000
vn 0.000000 0.000000 -1.000000
vn 0.000000 -1.000000 0.000000
vn 0.000000 -1.000000 0.000000
vn 0.000000 -1.000000 0.000000
vn 0.000000 -1.000000 0.000000
vn 0.000000 0.000000 1.000000
vn 0.000000 0.000000 1.000000
vn 0.000000 0.000000 1.000000
vn 0.000000 0.000000 1.000000
vn 0.000000 1.000000 0.000000
vn 0.000000 1.000000 0.000000
vn 0.000000 1.000000 0.000000
vn 0.000000 1.000000 0.000000
vn 0.000000 1.000000 0.000000
vn 0.000000 1.000000 0.000000
vn 0.000000 1.000000 0.000000
vn 0.000000 1.000000 0.000000
vn -1.000000 0.000000 0.000000
vn -1.000000 0.000000 0.000000
vn 0.000000 -1.000000 0.000000
vn 0.000000 -1.000000 0.000000
vn 0.000000 -1.000000 0.000000
vn 0.000000 -1.000000 0.000000
vn 1.000000 0.000000 0.000000
vn 1.000000 0.000000 0.000000
vn 0.000000 1.000000 0.000000
vn 0.000000 1.000000 0.000000
vn 0.000000 1.000000 0.000000
vn 0.000000 1.000000 0.000000
vn 0.000000 0.000000 1.000000
vn 0.000000 0.000000 1.000000
vn 0.000000 0.000000 1.000000
vn 0.000000 0.000000 1.000000
vn 0.000000 0.000000 1.000000
vn 0.000000 0.000000 1.000000
vn 0.000000 0.000000 1.000000
vn 0.000000 0.000000 1.000000
vn 0.000000 0.000000 1.000000
vn 0.000000 0.000000 1.000000
vn 1.000000 0.000000 0.000000
vn 1.000000 0.000000 0.000000
vn 1.000000 0.000000 0.000000
vn 1.000000 0.000000 0.000000
vn 1.000000 0.000000 0.000000
vn 1.000000 0.000000 0.000000
vn 1.000000 0.000000 0.000000
vn 1.000000 0.000000 0.000000
vn 1.000000 0.000000 0.000000
vn 1.000000 0.000000 0.000000
vn 1.000000 0.000000 0.000000
vn 1.000000 0.000000 0.000000
vn -1.000000 0.000000 0.000000
vn -1.000000 0.000000 0.000000
vn -1.000000 0.000000 0.000000
vn -1.000000 0.000000 0.000000
vn -1.000000 0.000000 0.000000
vn -1.000000 0.000000 0.000000
vn -1.000000 0.000000 0.000000
vn -1.000000 0.000000 0.000000
vn -1.000000 0.000000 0.000000
vn -1.000000 0.000000 0.000000
vn -1.000000 0.000000 0.000000
vn -1.000000 0.000000 0.000000
vn -1.000000 0.000000 0.000000
vn -1.000000 0.000000 0.000000
vn -1.000000 0.000000 0.000000
vn -1.000000 0.000000 0.000000
vn -1.000000 0.000000 0.000000
vn -1.000000 0.000000 0.000000
vn -1.000000 0.000000 0.000000
vn -1.000000 0.000000 0.000000
vn -1.000000 0.000000 0.000000
vn -1.000000 0.000000 0.000000
vn 0.000000 0.000000 1.000000
vn 0.000000 0.000000 1.000000
vn 0.000000 0.000000 1.000000
vn 0.000000 0.000000 1.000000
vn 0.000000 0.000000 1.000000
vn 0.000000 0.000000 1.000000
vn 0.000000 0.000000 1.000000
vn 0.000000 0.000000 1.000000
vn 0.000000 0.000000 1.000000
vn 0.000000 0.000000 1.000000
vn 1.000000 0.000000 0.000000
vn 1.000000 0.000000 0.000000
vn 1.000000 0.000000 0.000000
vn 1.000000 0.000000 0.000000
vn 1.000000 0.000000 0.000000
vn 1.000000 0.000000 0.000000
vn 1.000000 0.000000 0.000000
vn 1.000000 0.000000 0.000000
vn 1.000000 0.000000 0.000000
vn 1.000000 0.000000 0.000000
vn 1.000000 0.000000 0.000000
vn 1.000000 0.000000 0.000000
vn 1.000000 0.000000 0.000000
vn 1.000000 0.000000 0.000000
vn 1.000000 0.000000 0.000000
vn 0.000000 0.000000 -1.000000
vn 0.000000 0.000000 -1.000000
vn 0.000000 0.000000 -1.000000
vn 0.000000 0.000000 -1.000000
vn 0.000000 0.000000 -1.000000
vn 0.000000 0.000000 -1.000000
vn 0.000000 0.000000 -1.000000
vn 0.000000 0.000000 -1.000000
vn 0.000000 0.000000 -1.000000
vn 0.000000 0.000000 -1.000000
vn 0.000000 0.000000 1.000000
vn 0.000000 0.000000 1.000000
vn 0.000000 0.000000 1.000000
vn 0.000000 0.000000 1.000000
vn 0.000000 0.000000 1.000000
vn 0.000000 0.000000 1.000000
vn 0.000000 0.000000 1.000000
vn 0.000000 0.000000 1.000000
vn 0.000000 0.000000 1.000000
vn 0.000000 0.000000 1.000000
vn 0.000000 0.000000 1.000000
vn 0.000000 0.000000 1.000000
vn 0.000000 0.000000 -1.000000
vn 0.000000 0.000000 -1.000000
vn 0.000000 0.000000 -1.000000
vn 0.000000 0.000000 -1.000000
vn 0.000000 0.000000 -1.000000
vn 0.000000 0.000000 -1.000000
vn 0.000000 0.000000 -1.000000
vn 0.000000 0.000000 -1.000000
vn 0.000000 0.000000 -1.000000
vn 0.000000 0.000000 -1.000000
vn -1.000000 0.000000 0.000000
vn -1.000000 0.000000 0.000000
vn -1.000000 0.000000 0.000000
vn -1.000000 0.000000 0.000000
vn -1.000000 0.000000 0.000000
s 1
g pCube14
usemtl initialShadingGroup
f 1/1/1 15/22/2 16/24/3 3/3/4
s 2
f 29/41/5 34/46/6 39/51/7 44/56/8
s 3
f 5/5/9 13/20/10 14/21/11 7/7/12
s 4
f 18/28/13 19/29/14 15/23/15 1/9/16
s 5
f 2/2/17 21/32/18 22/34/19 4/4/20
s 6
f 18/27/21 1/1/22 3/3/23 17/25/24
s 3
f 9/15/25 6/6/26 8/8/27 10/16/28
s 4
f 11/18/29 20/30/30 21/31/31 2/10/32
s 1
f 12/19/33 11/17/34 2/2/35 4/4/36
s 2
f 54/61/37 49/66/38 59/71/39 64/76/40
s 3
f 13/20/10 9/15/25 10/16/28 14/21/11
s 4
f 15/23/15 19/29/14 20/30/30 11/18/29
s 1
f 16/24/3 15/22/2 11/17/34 12/19/33
s off
f 24/36/41 16/24/42 12/19/43 23/35/44
s 6
f 7/13/45 18/27/21 17/25/24 5/14/46
s 4
f 7/7/47 14/21/48 19/29/14 18/28/13
f 20/30/30 19/29/14 14/21/48 10/16/49
f 21/31/31 20/30/30 10/16/49 8/8/50
s 5
f 22/34/19 21/32/18 8/11/51 6/12/52
s 2
f 69/86/53 54/61/37 64/76/40 74/81/54
f 79/91/55 39/51/7 54/61/37 69/86/53
f 44/56/8 39/51/7 79/91/55 84/96/56
s 1
f 3/3/4 16/24/3 30/42/57 25/37/58
f 25/37/58 30/42/57 31/43/59 26/38/60
f 26/38/60 31/43/59 32/44/61 27/39/62
f 27/39/62 32/44/61 33/45/63 28/40/64
f 28/40/64 33/45/63 34/46/65 29/41/66
s 9
f 16/24/67 24/36/68 35/47/69 30/42/70
f 30/42/70 35/47/69 36/48/71 31/43/72
f 31/43/72 36/48/71 37/49/73 32/44/74
f 32/44/74 37/49/73 38/50/75 33/45/76
f 33/45/76 38/50/75 39/51/77 34/46/78
s 6
f 17/26/24 3/3/23 25/37/79 40/52/80
f 40/52/80 25/37/79 26/38/81 41/53/82
f 41/53/82 26/38/81 27/39/83 42/54/84
f 42/54/84 27/39/83 28/40/85 43/55/86
f 43/55/86 28/40/85 29/41/87 44/56/88
s 10
f 23/35/89 12/19/90 45/62/91 50/57/92
f 50/57/92 45/62/91 46/63/93 51/58/94
f 51/58/94 46/63/93 47/64/95 52/59/96
f 52/59/96 47/64/95 48/65/97 53/60/98
f 53/60/98 48/65/97 49/66/99 54/61/100
s 1
f 12/19/33 4/4/36 55/67/101 45/62/102
f 45/62/102 55/67/101 56/68/103 46/63/104
f 46/63/104 56/68/103 57/69/105 47/64/106
f 47/64/106 57/69/105 58/70/107 48/65/108
f 48/65/108 58/70/107 59/71/109 49/66/110
s 5
f 4/4/20 22/33/19 60/72/111 55/67/112
f 55/67/112 60/72/111 61/73/113 56/68/114
f 56/68/114 61/73/113 62/74/115 57/69/116
f 57/69/116 62/74/115 63/75/117 58/70/118
f 58/70/118 63/75/117 64/76/119 59/71/120
f 22/33/19 6/6/52 70/77/121 60/72/111
f 60/72/111 70/77/121 71/78/122 61/73/113
f 61/73/113 71/78/122 72/79/123 62/74/115
f 62/74/115 72/79/123 73/80/124 63/75/117
f 63/75/117 73/80/124 74/81/125 64/76/119
s 3
f 6/6/26 9/15/25 65/82/126 70/77/127
f 70/77/127 65/82/126 66/83/128 71/78/129
f 71/78/129 66/83/128 67/84/130 72/79/131
f 72/79/131 67/84/130 68/85/132 73/80/133
f 73/80/133 68/85/132 69/86/134 74/81/135
s 11
f 24/36/136 23/35/137 50/57/138 35/47/139
f 35/47/139 50/57/138 51/58/140 36/48/141
f 36/48/141 51/58/140 52/59/142 37/49/143
f 37/49/143 52/59/142 53/60/144 38/50/145
f 38/50/145 53/60/144 54/61/146 39/51/147
s 3
f 9/15/25 13/20/10 75/87/148 65/82/126
f 65/82/126 75/87/148 76/88/149 66/83/128
f 66/83/128 76/88/149 77/89/150 67/84/130
f 67/84/130 77/89/150 78/90/151 68/85/132
f 68/85/132 78/90/151 79/91/152 69/86/134
f 13/20/10 5/5/9 80/92/153 75/87/148
f 75/87/148 80/92/153 81/93/154 76/88/149
f 76/88/149 81/93/154 82/94/155 77/89/150
f 77/89/150 82/94/155 83/95/156 78/90/151
f 78/90/151 83/95/156 84/96/157 79/91/152
s 6
f 5/5/46 17/26/24 40/52/80 80/92/158
f 80/92/158 40/52/80 41/53/82 81/93/159
f 81/93/159 41/53/82 42/54/84 82/94/160
f 82/94/160 42/54/84 43/55/86 83/95/161
f 83/95/161 43/55/86 44/56/88 84/96/162
