# This file uses centimeters as units for non-parametric coordinates.

mtllib circle.mtl
g default
v 0.257166 -0.192373 -0.433752
v 0.257166 0.106583 -0.706797
v 0.257166 3.318902 -0.433752
v 0.257166 3.019946 -0.706797
v -1.410793 1.021370 -0.433752
v -1.126767 1.113646 -0.706797
v -1.268780 1.067508 -0.570275
v 0.257166 -0.042895 -0.570275
v -0.774366 0.143637 -0.433752
v -0.686539 0.264506 -0.570275
v -0.730453 0.204072 -0.502014
v 0.257166 -0.117634 -0.502014
v -0.284363 -0.104813 -0.433752
v -0.261310 -0.033802 -0.502014
v -0.238257 0.037210 -0.570275
v -1.339786 1.044439 -0.502014
v -1.162089 0.531215 -0.433752
v -1.101670 0.575150 -0.502014
v -1.041251 0.619086 -0.570275
v -0.598713 0.385376 -0.706797
v 0.257166 0.031844 -0.638536
v -0.642626 0.324941 -0.638536
v -0.215203 0.108221 -0.638536
v -0.192150 0.179233 -0.706797
v -1.197773 1.090577 -0.638536
v -0.980832 0.663021 -0.638536
v -0.920414 0.706956 -0.706797
v -1.410793 2.105159 -0.433752
v -1.126767 2.012884 -0.706797
v -1.268780 2.059021 -0.570275
v -1.339786 2.082090 -0.502014
v -1.498472 1.563265 -0.433752
v -1.423733 1.563265 -0.502014
v -1.348994 1.563265 -0.570275
v -1.197773 2.035953 -0.638536
v -1.274255 1.563265 -0.638536
v -1.199516 1.563265 -0.706797
v 0.257166 3.169424 -0.570275
v -0.774366 2.982893 -0.433752
v -0.686539 2.862023 -0.570275
v -0.730453 2.922458 -0.502014
v -1.162089 2.595314 -0.433752
v -1.101670 2.551379 -0.502014
v -1.041251 2.507444 -0.570275
v 0.257166 3.244163 -0.502014
v -0.284363 3.231343 -0.433752
v -0.261310 3.160331 -0.502014
v -0.238257 3.089319 -0.570275
v -0.598713 2.741153 -0.706797
v -0.642626 2.801588 -0.638536
v -0.980832 2.463508 -0.638536
v -0.920414 2.419573 -0.706797
v 0.257166 3.094685 -0.638536
v -0.215203 3.018308 -0.638536
v -0.192150 2.947297 -0.706797
v 1.925124 2.105159 -0.433752
v 1.641098 2.012884 -0.706797
v 1.783111 2.059021 -0.570275
v 1.288697 2.982893 -0.433752
v 1.200871 2.862023 -0.570275
v 1.244784 2.922458 -0.502014
v 0.798695 3.231343 -0.433752
v 0.775641 3.160331 -0.502014
v 0.752588 3.089319 -0.570275
v 1.854118 2.082090 -0.502014
v 1.676420 2.595314 -0.433752
v 1.616001 2.551379 -0.502014
v 1.555583 2.507444 -0.570275
v 1.113044 2.741153 -0.706797
v 1.156958 2.801588 -0.638536
v 0.729535 3.018308 -0.638536
v 0.706481 2.947297 -0.706797
v 1.712105 2.035953 -0.638536
v 1.495164 2.463508 -0.638536
v 1.434745 2.419573 -0.706797
v 1.925124 1.021370 -0.433752
v 1.641098 1.113646 -0.706797
v 1.783111 1.067508 -0.570275
v 1.854118 1.044439 -0.502014
v 2.012803 1.563265 -0.433752
v 1.938064 1.563265 -0.502014
v 1.863325 1.563265 -0.570275
v 1.712105 1.090577 -0.638536
v 1.788586 1.563265 -0.638536
v 1.713847 1.563265 -0.706797
v 1.288697 0.143637 -0.433752
v 1.200871 0.264506 -0.570275
v 1.244784 0.204072 -0.502014
v 1.676420 0.531215 -0.433752
v 1.616001 0.575150 -0.502014
v 1.555583 0.619086 -0.570275
v 0.798695 -0.104813 -0.433752
v 0.775641 -0.033802 -0.502014
v 0.752588 0.037210 -0.570275
v 1.113044 0.385376 -0.706797
v 1.156958 0.324941 -0.638536
v 1.495164 0.663021 -0.638536
v 1.434745 0.706956 -0.706797
v 0.729535 0.108221 -0.638536
v 0.706481 0.179233 -0.706797
vt 1.000000 0.750000
vt 1.000000 1.000000
vt 0.950016 1.000000
vt 0.950016 0.750000
vt 0.500000 0.750000
vt 0.500000 1.000000
vt 0.450016 1.000000
vt 0.450016 0.750000
vt 0.199981 0.750000
vt 0.199981 1.000000
vt 0.149974 1.000000
vt 0.149974 0.750000
vt 0.199981 0.250000
vt 0.199981 0.500000
vt 0.149974 0.500000
vt 0.149974 0.250000
vt 0.099968 0.250000
vt 0.099968 0.500000
vt 0.049984 0.500000
vt 0.049984 0.250000
vt 0.049984 0.000000
vt 0.099968 0.000000
vt 0.000000 0.000000
vt 0.000000 0.250000
vt 0.000000 0.500000
vt 0.149974 0.000000
vt 0.199981 0.000000
vt 0.099968 1.000000
vt 0.049984 1.000000
vt 0.049984 0.750000
vt 0.099968 0.750000
vt 0.000000 0.750000
vt 0.000000 1.000000
vt 0.300019 0.750000
vt 0.300019 1.000000
vt 0.250000 1.000000
vt 0.250000 0.750000
vt 0.300019 0.250000
vt 0.300019 0.500000
vt 0.250000 0.500000
vt 0.250000 0.250000
vt 0.250000 0.000000
vt 0.300019 0.000000
vt 0.500000 0.250000
vt 0.500000 0.500000
vt 0.450016 0.500000
vt 0.450016 0.250000
vt 0.400032 0.250000
vt 0.400032 0.500000
vt 0.350026 0.500000
vt 0.350026 0.250000
vt 0.350026 0.000000
vt 0.400032 0.000000
vt 0.450016 0.000000
vt 0.500000 0.000000
vt 0.400032 1.000000
vt 0.350026 1.000000
vt 0.350026 0.750000
vt 0.400032 0.750000
vt 0.699981 0.750000
vt 0.699981 1.000000
vt 0.649974 1.000000
vt 0.649974 0.750000
vt 0.699981 0.250000
vt 0.699981 0.500000
vt 0.649974 0.500000
vt 0.649974 0.250000
vt 0.599968 0.250000
vt 0.599968 0.500000
vt 0.549984 0.500000
vt 0.549984 0.250000
vt 0.549984 0.000000
vt 0.599968 0.000000
vt 0.649974 0.000000
vt 0.699981 0.000000
vt 0.599968 1.000000
vt 0.549984 1.000000
vt 0.549984 0.750000
vt 0.599968 0.750000
vt 0.800019 0.750000
vt 0.800019 1.000000
vt 0.750000 1.000000
vt 0.750000 0.750000
vt 0.800019 0.250000
vt 0.800019 0.500000
vt 0.750000 0.500000
vt 0.750000 0.250000
vt 0.750000 0.000000
vt 0.800019 0.000000
vt 1.000000 0.250000
vt 1.000000 0.500000
vt 0.950016 0.500000
vt 0.950016 0.250000
vt 0.900032 0.250000
vt 0.900032 0.500000
vt 0.850026 0.500000
vt 0.850026 0.250000
vt 0.850026 0.000000
vt 0.900032 0.000000
vt 0.950016 0.000000
vt 1.000000 0.000000
vt 0.900032 1.000000
vt 0.850026 1.000000
vt 0.850026 0.750000
vt 0.900032 0.750000
vn -0.000000 -0.674384 -0.738381
vn 0.000000 -0.674384 -0.738381
vn 0.209030 -0.641581 -0.738025
vn 0.208993 -0.641593 -0.738025
vn 0.000000 0.674384 -0.738381
vn 0.000000 0.674385 -0.738380
vn -0.209030 0.641581 -0.738024
vn -0.208993 0.641593 -0.738025
vn -0.641556 -0.209108 -0.738025
vn -0.641544 -0.209144 -0.738025
vn -0.546138 -0.395926 -0.738225
vn -0.546107 -0.395969 -0.738225
vn -0.641556 -0.209108 -0.738024
vn -0.641556 -0.209108 -0.738024
vn -0.546107 -0.395969 -0.738225
vn -0.546107 -0.395969 -0.738225
vn -0.395810 -0.546223 -0.738224
vn -0.395809 -0.546223 -0.738224
vn -0.208993 -0.641593 -0.738025
vn -0.208993 -0.641593 -0.738024
vn -0.208948 -0.641608 -0.738024
vn -0.395860 -0.546186 -0.738224
vn -0.000000 -0.674384 -0.738380
vn -0.000000 -0.674384 -0.738381
vn -0.000000 -0.674384 -0.738381
vn -0.546069 -0.396022 -0.738225
vn -0.641570 -0.209064 -0.738024
vn -0.395768 -0.546254 -0.738224
vn -0.209030 -0.641581 -0.738024
vn -0.208993 -0.641593 -0.738024
vn -0.395809 -0.546223 -0.738224
vn -0.641556 0.209108 -0.738024
vn -0.641544 0.209144 -0.738024
vn -0.674384 -0.000000 -0.738381
vn -0.674384 -0.000000 -0.738381
vn -0.641556 0.209108 -0.738024
vn -0.641556 0.209108 -0.738024
vn -0.674384 0.000000 -0.738381
vn -0.674384 0.000000 -0.738381
vn -0.674384 0.000000 -0.738381
vn -0.641570 0.209064 -0.738024
vn 0.000000 0.674384 -0.738381
vn -0.000000 0.674383 -0.738381
vn -0.208993 0.641593 -0.738025
vn -0.208993 0.641593 -0.738024
vn -0.395810 0.546223 -0.738224
vn -0.395810 0.546223 -0.738224
vn -0.546106 0.395969 -0.738225
vn -0.546107 0.395970 -0.738225
vn -0.546069 0.396022 -0.738224
vn -0.395860 0.546186 -0.738225
vn -0.208948 0.641608 -0.738025
vn 0.000000 0.674385 -0.738380
vn -0.395767 0.546253 -0.738225
vn -0.546138 0.395927 -0.738225
vn -0.546107 0.395969 -0.738225
vn -0.395809 0.546223 -0.738225
vn 0.641556 0.209108 -0.738024
vn 0.641544 0.209144 -0.738024
vn 0.546138 0.395926 -0.738225
vn 0.546106 0.395969 -0.738225
vn 0.641556 0.209108 -0.738024
vn 0.641556 0.209108 -0.738024
vn 0.546107 0.395970 -0.738225
vn 0.546107 0.395970 -0.738224
vn 0.395809 0.546223 -0.738225
vn 0.395809 0.546223 -0.738224
vn 0.208993 0.641593 -0.738025
vn 0.208993 0.641593 -0.738025
vn 0.208948 0.641608 -0.738025
vn 0.395860 0.546186 -0.738225
vn 0.546069 0.396022 -0.738224
vn 0.641571 0.209064 -0.738024
vn 0.395768 0.546254 -0.738224
vn 0.209030 0.641581 -0.738024
vn 0.208993 0.641593 -0.738025
vn 0.395809 0.546223 -0.738225
vn 0.641556 -0.209108 -0.738025
vn 0.641544 -0.209144 -0.738025
vn 0.674384 0.000000 -0.738381
vn 0.674384 0.000000 -0.738381
vn 0.641556 -0.209108 -0.738024
vn 0.641556 -0.209108 -0.738024
vn 0.674384 0.000000 -0.738381
vn 0.674385 0.000000 -0.738380
vn 0.674385 -0.000000 -0.738380
vn 0.641571 -0.209064 -0.738024
vn 0.208993 -0.641593 -0.738025
vn 0.208993 -0.641593 -0.738024
vn 0.395810 -0.546223 -0.738224
vn 0.395809 -0.546223 -0.738224
vn 0.546107 -0.395969 -0.738225
vn 0.546107 -0.395969 -0.738225
vn 0.546069 -0.396022 -0.738225
vn 0.395860 -0.546187 -0.738224
vn 0.208948 -0.641608 -0.738024
vn 0.395768 -0.546254 -0.738224
vn 0.546138 -0.395926 -0.738225
vn 0.546107 -0.395969 -0.738225
vn 0.395809 -0.546223 -0.738224
s 1
g polySurface41 loftedSurface7
usemtl initialShadingGroup
f 21/1/1 2/2/2 100/3/3 99/4/4
f 53/5/5 4/6/6 55/7/7 54/8/8
f 25/9/9 6/10/10 27/11/11 26/12/12
f 16/13/13 7/14/14 19/15/15 18/16/16
f 11/17/17 10/18/18 15/19/19 14/20/20
f 13/21/21 9/22/22 11/17/17 14/20/20
f 1/23/23 13/21/21 14/20/20 12/24/24
f 15/19/19 8/25/25 12/24/24 14/20/20
f 17/26/26 5/27/27 16/13/13 18/16/16
f 9/22/22 17/26/26 18/16/16 11/17/17
f 19/15/15 10/18/18 11/17/17 18/16/16
f 20/28/28 24/29/29 23/30/30 22/31/31
f 15/19/19 10/18/18 22/31/31 23/30/30
f 21/32/1 8/25/25 15/19/19 23/30/30
f 24/29/29 2/33/2 21/32/1 23/30/30
f 7/14/14 25/9/9 26/12/12 19/15/15
f 26/12/12 22/31/31 10/18/18 19/15/15
f 27/11/11 20/28/28 22/31/31 26/12/12
f 35/34/32 29/35/33 37/36/34 36/37/35
f 31/38/36 30/39/37 34/40/38 33/41/39
f 32/42/40 28/43/41 31/38/36 33/41/39
f 5/27/27 32/42/40 33/41/39 16/13/13
f 34/40/38 7/14/14 16/13/13 33/41/39
f 30/39/37 35/34/32 36/37/35 34/40/38
f 36/37/35 25/9/9 7/14/14 34/40/38
f 37/36/34 6/10/10 25/9/9 36/37/35
f 45/44/42 38/45/43 48/46/44 47/47/45
f 41/48/46 40/49/47 44/50/48 43/51/49
f 42/52/50 39/53/51 41/48/46 43/51/49
f 28/43/41 42/52/50 43/51/49 31/38/36
f 44/50/48 30/39/37 31/38/36 43/51/49
f 46/54/52 3/55/53 45/44/42 47/47/45
f 39/53/51 46/54/52 47/47/45 41/48/46
f 48/46/44 40/49/47 41/48/46 47/47/45
f 49/56/54 52/57/55 51/58/56 50/59/57
f 44/50/48 40/49/47 50/59/57 51/58/56
f 35/34/32 30/39/37 44/50/48 51/58/56
f 52/57/55 29/35/33 35/34/32 51/58/56
f 38/45/43 53/5/5 54/8/8 48/46/44
f 54/8/8 50/59/57 40/49/47 48/46/44
f 55/7/7 49/56/54 50/59/57 54/8/8
f 73/60/58 57/61/59 75/62/60 74/63/61
f 65/64/62 58/65/63 68/66/64 67/67/65
f 61/68/66 60/69/67 64/70/68 63/71/69
f 62/72/70 59/73/71 61/68/66 63/71/69
f 3/55/53 62/72/70 63/71/69 45/44/42
f 64/70/68 38/45/43 45/44/42 63/71/69
f 66/74/72 56/75/73 65/64/62 67/67/65
f 59/73/71 66/74/72 67/67/65 61/68/66
f 68/66/64 60/69/67 61/68/66 67/67/65
f 69/76/74 72/77/75 71/78/76 70/79/77
f 64/70/68 60/69/67 70/79/77 71/78/76
f 53/5/5 38/45/43 64/70/68 71/78/76
f 72/77/75 4/6/6 53/5/5 71/78/76
f 58/65/63 73/60/58 74/63/61 68/66/64
f 74/63/61 70/79/77 60/69/67 68/66/64
f 75/62/60 69/76/74 70/79/77 74/63/61
f 83/80/78 77/81/79 85/82/80 84/83/81
f 79/84/82 78/85/83 82/86/84 81/87/85
f 80/88/86 76/89/87 79/84/82 81/87/85
f 56/75/73 80/88/86 81/87/85 65/64/62
f 82/86/84 58/65/63 65/64/62 81/87/85
f 78/85/83 83/80/78 84/83/81 82/86/84
f 84/83/81 73/60/58 58/65/63 82/86/84
f 85/82/80 57/61/59 73/60/58 84/83/81
f 12/90/24 8/91/25 94/92/88 93/93/89
f 88/94/90 87/95/91 91/96/92 90/97/93
f 89/98/94 86/99/95 88/94/90 90/97/93
f 76/89/87 89/98/94 90/97/93 79/84/82
f 91/96/92 78/85/83 79/84/82 90/97/93
f 92/100/96 1/101/23 12/90/24 93/93/89
f 86/99/95 92/100/96 93/93/89 88/94/90
f 94/92/88 87/95/91 88/94/90 93/93/89
f 95/102/97 98/103/98 97/104/99 96/105/100
f 91/96/92 87/95/91 96/105/100 97/104/99
f 83/80/78 78/85/83 91/96/92 97/104/99
f 98/103/98 77/81/79 83/80/78 97/104/99
f 8/91/25 21/1/1 99/4/4 94/92/88
f 99/4/4 96/105/100 87/95/91 94/92/88
f 100/3/3 95/102/97 96/105/100 99/4/4
