# This file uses centimeters as units for non-parametric coordinates.

mtllib diamond.mtl
g default
v -1.191707 3.044072 -0.451350
v -1.715071 2.977770 -0.495361
v -1.461293 3.441834 -0.473369
v -0.937929 3.508136 -0.429359
v -1.310830 3.243234 -0.649127
vt 0.500000 0.000000
vt 0.250000 0.250000
vt 0.500000 0.500000
vt 0.750000 0.250000
vt 0.250000 0.500000
vt 0.375000 0.500000
vt 0.500000 0.500000
vt 0.625000 0.500000
vt 0.750000 0.500000
vt 0.500000 1.000000
vn -0.083607 -0.001501 0.996498
vn -0.083607 -0.001501 0.996498
vn -0.083607 -0.001501 0.996498
vn -0.083607 -0.001501 0.996498
vn 0.145183 -0.652094 -0.744107
vn 0.145183 -0.652094 -0.744107
vn 0.145183 -0.652094 -0.744107
vn -0.512266 0.317945 -0.797806
vn -0.512266 0.317945 -0.797806
vn -0.512266 0.317945 -0.797806
vn -0.019328 0.654354 -0.755941
vn -0.019328 0.654354 -0.755941
vn -0.019328 0.654354 -0.755941
vn 0.638121 -0.315685 -0.702242
vn 0.638121 -0.315685 -0.702242
vn 0.638121 -0.315685 -0.702242
s off
g pPyramid2
usemtl phong3SG
f 1/1/1 4/4/2 3/3/3 2/2/4
f 1/5/5 2/6/6 5/10/7
f 2/6/8 3/7/9 5/10/10
f 3/7/11 4/8/12 5/10/13
f 4/8/14 1/9/15 5/10/16
g default
v 1.748450 3.068367 -0.461684
v 1.532954 3.536798 -0.419952
v 2.031945 3.407380 -0.463154
v 2.247441 2.938949 -0.504886
v 1.876746 3.248314 -0.649068
vt 0.500000 0.000000
vt 0.250000 0.250000
vt 0.500000 0.500000
vt 0.750000 0.250000
vt 0.250000 0.500000
vt 0.375000 0.500000
vt 0.500000 0.500000
vt 0.625000 0.500000
vt 0.750000 0.500000
vt 0.500000 1.000000
vn 0.071773 -0.055702 0.995864
vn 0.071773 -0.055702 0.995864
vn 0.071773 -0.055702 0.995864
vn 0.071773 -0.055702 0.995864
vn -0.672385 -0.247164 -0.697716
vn -0.672385 -0.247164 -0.697716
vn -0.672385 -0.247164 -0.697716
vn 0.121291 0.701941 -0.701831
vn 0.121291 0.701941 -0.701831
vn 0.121291 0.701941 -0.701831
vn 0.567694 0.328414 -0.754896
vn 0.567694 0.328414 -0.754896
vn 0.567694 0.328414 -0.754896
vn -0.225983 -0.620691 -0.750782
vn -0.225983 -0.620691 -0.750782
vn -0.225983 -0.620691 -0.750782
s off
g pPyramid1
usemtl phong3SG
f 6/11/17 9/14/18 8/13/19 7/12/20
f 6/15/21 7/16/22 10/20/23
f 7/16/24 8/17/25 10/20/26
f 8/17/27 9/18/28 10/20/29
f 9/18/30 6/19/31 10/20/32
