# This file uses centimeters as units for non-parametric coordinates.

mtllib slide.mtl
g default
v 0.515221 -0.986304 -0.477943
v -0.176568 -0.986304 -0.484187
v 0.515262 -0.978689 -0.482502
v -0.176527 -0.978689 -0.488746
v 0.511679 -0.740956 -0.085448
v -0.180111 -0.740956 -0.091691
v 0.511637 -0.748571 -0.080889
v -0.180152 -0.748571 -0.087132
v -0.156710 -0.740956 -0.091480
v -0.156751 -0.748571 -0.086921
v -0.153167 -0.986304 -0.483976
v -0.153126 -0.978689 -0.488535
v 0.492512 -0.740956 -0.085621
v 0.492471 -0.748571 -0.081062
v 0.496054 -0.986304 -0.478116
v 0.496096 -0.978689 -0.482675
v -0.179975 -0.749916 -0.106655
v -0.156575 -0.749916 -0.106444
v 0.492647 -0.749916 -0.100585
v 0.511814 -0.749916 -0.100412
v 0.511772 -0.757531 -0.095853
v 0.492606 -0.757531 -0.096026
v -0.156616 -0.757531 -0.101885
v -0.180017 -0.757531 -0.102096
v 0.515453 -0.943336 -0.503668
v 0.515644 -0.907983 -0.524833
v 0.515835 -0.872630 -0.545999
v 0.516026 -0.837277 -0.567164
v 0.516217 -0.801924 -0.588330
v 0.496287 -0.943336 -0.503841
v 0.496478 -0.907983 -0.525006
v 0.496669 -0.872630 -0.546172
v 0.496860 -0.837277 -0.567337
v 0.497051 -0.801924 -0.588503
v 0.492838 -0.714563 -0.121750
v 0.493029 -0.679210 -0.142916
v 0.493220 -0.643857 -0.164081
v 0.493411 -0.608504 -0.185247
v 0.493602 -0.573151 -0.206412
v 0.512005 -0.714563 -0.121577
v 0.512196 -0.679210 -0.142743
v 0.512387 -0.643857 -0.163908
v 0.512578 -0.608504 -0.185074
v 0.512769 -0.573151 -0.206239
v -0.152935 -0.943336 -0.509700
v -0.152744 -0.907983 -0.530866
v -0.152553 -0.872630 -0.552031
v -0.152362 -0.837277 -0.573197
v -0.152171 -0.801924 -0.594362
v -0.156384 -0.714563 -0.127610
v -0.156193 -0.679210 -0.148775
v -0.156002 -0.643857 -0.169941
v -0.155811 -0.608504 -0.191106
v -0.155619 -0.573151 -0.212272
v -0.176336 -0.943336 -0.509911
v -0.176145 -0.907983 -0.531077
v -0.175954 -0.872630 -0.552242
v -0.175763 -0.837277 -0.573408
v -0.175572 -0.801924 -0.594573
v -0.179784 -0.714563 -0.127821
v -0.179593 -0.679210 -0.148986
v -0.179402 -0.643857 -0.170152
v -0.179211 -0.608504 -0.191317
v -0.179020 -0.573151 -0.212483
v -0.156519 -0.705603 -0.112646
v -0.156328 -0.670251 -0.133811
v -0.156137 -0.634898 -0.154977
v -0.155946 -0.599545 -0.176142
v -0.155755 -0.564192 -0.197308
v -0.179920 -0.705603 -0.112857
v -0.179728 -0.670251 -0.134022
v -0.179537 -0.634898 -0.155188
v -0.179346 -0.599545 -0.176353
v -0.179155 -0.564192 -0.197519
v 0.492703 -0.705603 -0.106786
v 0.492894 -0.670251 -0.127952
v 0.493085 -0.634898 -0.149117
v 0.493276 -0.599545 -0.170283
v 0.493467 -0.564192 -0.191448
v 0.511870 -0.705603 -0.106613
v 0.512061 -0.670251 -0.127779
v 0.512252 -0.634898 -0.148944
v 0.512443 -0.599545 -0.170110
v 0.512634 -0.564192 -0.191275
vt 0.375000 0.000000
vt 0.625000 0.000000
vt 0.375000 0.250000
vt 0.625000 0.250000
vt 0.375000 0.500000
vt 0.625000 0.500000
vt 0.375000 0.750000
vt 0.625000 0.750000
vt 0.375000 1.000000
vt 0.625000 1.000000
vt 0.875000 0.000000
vt 0.875000 0.250000
vt 0.125000 0.000000
vt 0.125000 0.250000
vt 0.616543 0.500000
vt 0.616543 0.750000
vt 0.616543 0.000000
vt 0.616543 1.000000
vt 0.616543 0.250000
vt 0.381926 0.500000
vt 0.381926 0.750000
vt 0.381926 0.000000
vt 0.381926 1.000000
vt 0.381926 0.250000
vt 0.625000 0.490578
vt 0.865578 0.250000
vt 0.616543 0.490578
vt 0.381926 0.490578
vt 0.134422 0.250000
vt 0.375000 0.490578
vt 0.134422 0.000000
vt 0.375000 0.759422
vt 0.381926 0.759422
vt 0.616543 0.759422
vt 0.625000 0.759422
vt 0.865578 0.000000
vt 0.375000 0.250000
vt 0.375000 0.250000
vt 0.375000 0.250000
vt 0.375000 0.250000
vt 0.375000 0.250000
vt 0.381926 0.250000
vt 0.381926 0.250000
vt 0.381926 0.250000
vt 0.381926 0.250000
vt 0.381926 0.250000
vt 0.381926 0.490578
vt 0.381926 0.490578
vt 0.381926 0.490578
vt 0.381926 0.490578
vt 0.381926 0.490578
vt 0.375000 0.490578
vt 0.375000 0.490578
vt 0.375000 0.490578
vt 0.375000 0.490578
vt 0.375000 0.490578
vt 0.616543 0.490578
vt 0.616543 0.490578
vt 0.616543 0.490578
vt 0.616543 0.490578
vt 0.616543 0.490578
vt 0.616543 0.250000
vt 0.616543 0.250000
vt 0.616543 0.250000
vt 0.616543 0.250000
vt 0.616543 0.250000
vt 0.625000 0.250000
vt 0.625000 0.250000
vt 0.625000 0.250000
vt 0.625000 0.250000
vt 0.625000 0.250000
vt 0.625000 0.490578
vt 0.625000 0.490578
vt 0.625000 0.490578
vt 0.625000 0.490578
vt 0.625000 0.490578
vt 0.625000 0.500000
vt 0.625000 0.500000
vt 0.625000 0.500000
vt 0.625000 0.500000
vt 0.625000 0.500000
vt 0.616543 0.500000
vt 0.616543 0.500000
vt 0.616543 0.500000
vt 0.616543 0.500000
vt 0.616543 0.500000
vt 0.381926 0.500000
vt 0.381926 0.500000
vt 0.381926 0.500000
vt 0.381926 0.500000
vt 0.381926 0.500000
vt 0.375000 0.500000
vt 0.375000 0.500000
vt 0.375000 0.500000
vt 0.375000 0.500000
vt 0.375000 0.500000
vn 0.007743 -0.513685 -0.857944
vn 0.007743 -0.513685 -0.857944
vn 0.007743 -0.513685 -0.857944
vn 0.007743 -0.513685 -0.857944
vn 0.004636 0.857979 -0.513664
vn 0.004636 0.857979 -0.513664
vn 0.004636 0.857979 -0.513664
vn 0.004636 0.857979 -0.513664
vn -0.007743 0.513685 0.857944
vn -0.007743 0.513685 0.857944
vn -0.007743 0.513685 0.857944
vn -0.007743 0.513685 0.857944
vn -0.004636 -0.857979 0.513664
vn -0.004636 -0.857979 0.513664
vn -0.004636 -0.857979 0.513664
vn -0.004636 -0.857979 0.513664
vn -0.999959 0.000000 -0.009025
vn -0.999959 0.000000 -0.009025
vn -0.999959 0.000000 -0.009025
vn -0.999959 0.000000 -0.009025
vn 0.999959 -0.000000 0.009025
vn 0.999959 -0.000000 0.009025
vn 0.999959 -0.000000 0.009025
vn 0.999959 -0.000000 0.009025
vn -0.007743 0.513685 0.857944
vn -0.007743 0.513685 0.857944
vn -0.007743 0.513685 0.857944
vn -0.007743 0.513685 0.857944
vn -0.004636 -0.857979 0.513664
vn -0.004636 -0.857979 0.513664
vn -0.004636 -0.857979 0.513664
vn -0.004636 -0.857979 0.513664
vn 0.007743 -0.513685 -0.857944
vn 0.007743 -0.513685 -0.857944
vn 0.007743 -0.513685 -0.857944
vn 0.007743 -0.513685 -0.857944
vn 0.004636 0.857979 -0.513664
vn 0.004636 0.857979 -0.513664
vn 0.004636 0.857979 -0.513664
vn 0.004636 0.857979 -0.513664
vn 0.004636 0.857979 -0.513664
vn 0.004636 0.857979 -0.513664
vn 0.004636 0.857979 -0.513664
vn 0.004636 0.857979 -0.513664
vn 0.004636 0.857979 -0.513664
vn 0.004636 0.857979 -0.513664
vn 0.004636 0.857979 -0.513664
vn 0.004636 0.857979 -0.513664
vn 0.999959 -0.000000 0.009025
vn 0.999959 -0.000000 0.009025
vn -0.004636 -0.857979 0.513664
vn -0.004636 -0.857979 0.513664
vn -0.004636 -0.857979 0.513664
vn -0.004636 -0.857979 0.513664
vn -0.999959 0.000000 -0.009025
vn -0.999959 0.000000 -0.009025
vn 0.007743 -0.513685 -0.857944
vn 0.007743 -0.513685 -0.857944
vn 0.007743 -0.513685 -0.857944
vn 0.007743 -0.513685 -0.857944
vn 0.007743 -0.513685 -0.857944
vn 0.007743 -0.513685 -0.857944
vn 0.007743 -0.513685 -0.857944
vn 0.007743 -0.513685 -0.857944
vn 0.007743 -0.513685 -0.857944
vn 0.007743 -0.513685 -0.857944
vn -0.999959 0.000000 -0.009025
vn -0.999959 0.000000 -0.009025
vn -0.999959 0.000000 -0.009025
vn -0.999959 0.000000 -0.009025
vn -0.999959 0.000000 -0.009025
vn -0.999959 0.000000 -0.009025
vn -0.999959 0.000000 -0.009025
vn -0.999959 0.000000 -0.009025
vn -0.999959 0.000000 -0.009025
vn -0.999959 0.000000 -0.009025
vn -0.999959 0.000000 -0.009025
vn -0.999959 0.000000 -0.009025
vn 0.999959 -0.000000 0.009025
vn 0.999959 -0.000000 0.009025
vn 0.999959 -0.000000 0.009025
vn 0.999959 -0.000000 0.009025
vn 0.999959 -0.000000 0.009025
vn 0.999959 -0.000000 0.009025
vn 0.999959 -0.000000 0.009025
vn 0.999959 -0.000000 0.009025
vn 0.999959 -0.000000 0.009025
vn 0.999959 -0.000000 0.009025
vn 0.999959 -0.000000 0.009025
vn 0.999959 -0.000000 0.009025
vn 0.999959 -0.000000 0.009025
vn 0.999959 -0.000000 0.009025
vn 0.999959 -0.000000 0.009025
vn 0.999959 -0.000000 0.009025
vn 0.999959 -0.000000 0.009025
vn 0.999959 -0.000000 0.009025
vn 0.999959 -0.000000 0.009025
vn 0.999959 -0.000000 0.009025
vn 0.999959 -0.000000 0.009025
vn 0.999959 -0.000000 0.009025
vn 0.007743 -0.513685 -0.857944
vn 0.007743 -0.513685 -0.857944
vn 0.007743 -0.513685 -0.857944
vn 0.007743 -0.513685 -0.857944
vn 0.007743 -0.513685 -0.857944
vn 0.007743 -0.513685 -0.857944
vn 0.007743 -0.513685 -0.857944
vn 0.007743 -0.513685 -0.857944
vn 0.007743 -0.513685 -0.857944
vn 0.007743 -0.513685 -0.857944
vn -0.999959 0.000000 -0.009025
vn -0.999959 0.000000 -0.009025
vn -0.999959 0.000000 -0.009025
vn -0.999959 0.000000 -0.009025
vn -0.999959 0.000000 -0.009025
vn -0.999959 0.000000 -0.009025
vn -0.999959 0.000000 -0.009025
vn -0.999959 0.000000 -0.009025
vn -0.999959 0.000000 -0.009025
vn -0.999959 0.000000 -0.009025
vn -0.999959 0.000000 -0.009025
vn -0.999959 0.000000 -0.009025
vn -0.999959 0.000000 -0.009025
vn -0.999959 0.000000 -0.009025
vn -0.999959 0.000000 -0.009025
vn -0.007743 0.513685 0.857944
vn -0.007743 0.513685 0.857944
vn -0.007743 0.513685 0.857944
vn -0.007743 0.513685 0.857944
vn -0.007743 0.513685 0.857944
vn -0.007743 0.513685 0.857944
vn -0.007743 0.513685 0.857944
vn -0.007743 0.513685 0.857944
vn -0.007743 0.513685 0.857944
vn -0.007743 0.513685 0.857944
vn -0.007743 0.513685 0.857944
vn -0.007743 0.513685 0.857944
vn -0.007743 0.513685 0.857944
vn -0.007743 0.513685 0.857944
vn -0.007743 0.513685 0.857944
vn -0.007743 0.513685 0.857944
vn -0.007743 0.513685 0.857944
vn -0.007743 0.513685 0.857944
vn -0.007743 0.513685 0.857944
vn -0.007743 0.513685 0.857944
vn 0.999959 -0.000000 0.009025
vn 0.999959 -0.000000 0.009025
vn 0.999959 -0.000000 0.009025
vn 0.999959 -0.000000 0.009025
vn 0.999959 -0.000000 0.009025
s 1
g pCube13
usemtl initialShadingGroup
f 1/1/1 15/22/2 16/24/3 3/3/4
s 2
f 29/41/5 34/46/6 39/51/7 44/56/8
s 3
f 5/5/9 13/20/10 14/21/11 7/7/12
s 4
f 21/32/13 22/33/14 15/23/15 1/9/16
s 5
f 2/2/17 24/36/18 17/26/19 4/4/20
s 6
f 21/31/21 1/1/22 3/3/23 20/29/24
s 7
f 9/15/25 6/6/26 8/8/27 10/16/28
s 4
f 11/18/29 23/34/30 24/35/31 2/10/32
s 1
f 12/19/33 11/17/34 2/2/35 4/4/36
s 8
f 54/61/37 49/66/38 59/71/39 64/76/40
s 4
f 15/23/15 22/33/14 23/34/30 11/18/29
s 1
f 16/24/3 15/22/2 11/17/34 12/19/33
s off
f 19/28/41 16/24/42 12/19/43 18/27/44
s 8
f 69/86/45 54/61/37 64/76/40 74/81/46
s 2
f 44/56/8 39/51/7 79/91/47 84/96/48
s 6
f 7/13/49 21/31/21 20/29/24 5/14/50
s 4
f 7/7/51 14/21/52 22/33/14 21/32/13
f 23/34/30 22/33/14 14/21/52 10/16/53
f 24/35/31 23/34/30 10/16/53 8/8/54
s 5
f 17/26/19 24/36/18 8/11/55 6/12/56
s 1
f 3/3/4 16/24/3 30/42/57 25/37/58
f 25/37/58 30/42/57 31/43/59 26/38/60
f 26/38/60 31/43/59 32/44/61 27/39/62
f 27/39/62 32/44/61 33/45/63 28/40/64
f 28/40/64 33/45/63 34/46/65 29/41/66
s 9
f 16/24/67 19/28/68 35/47/69 30/42/70
f 30/42/70 35/47/69 36/48/71 31/43/72
f 31/43/72 36/48/71 37/49/73 32/44/74
f 32/44/74 37/49/73 38/50/75 33/45/76
f 33/45/76 38/50/75 39/51/77 34/46/78
s 6
f 20/30/24 3/3/23 25/37/79 40/52/80
f 40/52/80 25/37/79 26/38/81 41/53/82
f 41/53/82 26/38/81 27/39/83 42/54/84
f 42/54/84 27/39/83 28/40/85 43/55/86
f 43/55/86 28/40/85 29/41/87 44/56/88
s 10
f 18/27/89 12/19/90 45/62/91 50/57/92
f 50/57/92 45/62/91 46/63/93 51/58/94
f 51/58/94 46/63/93 47/64/95 52/59/96
f 52/59/96 47/64/95 48/65/97 53/60/98
f 53/60/98 48/65/97 49/66/99 54/61/100
s 1
f 12/19/33 4/4/36 55/67/101 45/62/102
f 45/62/102 55/67/101 56/68/103 46/63/104
f 46/63/104 56/68/103 57/69/105 47/64/106
f 47/64/106 57/69/105 58/70/107 48/65/108
f 48/65/108 58/70/107 59/71/109 49/66/110
s 5
f 4/4/20 17/25/19 60/72/111 55/67/112
f 55/67/112 60/72/111 61/73/113 56/68/114
f 56/68/114 61/73/113 62/74/115 57/69/116
f 57/69/116 62/74/115 63/75/117 58/70/118
f 58/70/118 63/75/117 64/76/119 59/71/120
f 17/25/19 6/6/56 70/77/121 60/72/111
f 60/72/111 70/77/121 71/78/122 61/73/113
f 61/73/113 71/78/122 72/79/123 62/74/115
f 62/74/115 72/79/123 73/80/124 63/75/117
f 63/75/117 73/80/124 74/81/125 64/76/119
s 7
f 6/6/26 9/15/25 65/82/126 70/77/127
f 70/77/127 65/82/126 66/83/128 71/78/129
f 71/78/129 66/83/128 67/84/130 72/79/131
f 72/79/131 67/84/130 68/85/132 73/80/133
f 73/80/133 68/85/132 69/86/134 74/81/135
s 3
f 13/20/10 5/5/9 80/92/136 75/87/137
f 75/87/137 80/92/136 81/93/138 76/88/139
f 76/88/139 81/93/138 82/94/140 77/89/141
f 77/89/141 82/94/140 83/95/142 78/90/143
f 78/90/143 83/95/142 84/96/144 79/91/145
s 6
f 5/5/50 20/30/24 40/52/80 80/92/146
f 80/92/146 40/52/80 41/53/82 81/93/147
f 81/93/147 41/53/82 42/54/84 82/94/148
f 82/94/148 42/54/84 43/55/86 83/95/149
f 83/95/149 43/55/86 44/56/88 84/96/150
