# This file uses centimeters as units for non-parametric coordinates.

mtllib room.mtl
g default
v -20.814746 -6.808002 14.171411
v 20.814731 -6.808002 14.171411
v -20.814746 12.181174 14.171411
v 20.814731 12.181174 14.171411
v -20.814746 12.181174 -23.203612
v 20.814731 12.181174 -23.203612
v -20.814746 -6.808002 -23.203612
v 20.814731 -6.808002 -23.203612
vt 0.911333 0.098473
vt 0.056361 0.104704
vt 0.911333 0.996645
vt 0.056361 0.984819
vt 0.912438 1.004541
vt 0.045264 1.000799
vt -0.626700 -0.626700
vt 1.626700 -0.626700
vt -0.626700 1.626700
vt 1.626700 1.626700
vt 0.943639 0.104704
vt 0.943639 0.984819
vt 0.043905 0.098473
vt 0.043905 0.996645
vt 1.428851 -0.011331
vt 2.451513 -0.011331
vt 2.451513 1.011331
vt 1.428851 1.011331
vt 0.048396 0.073791
vt 0.915570 0.077533
vn 0.000000 1.000000 0.000000
vn 0.000000 1.000000 0.000000
vn 0.000000 1.000000 0.000000
vn 0.000000 1.000000 0.000000
vn 0.000000 0.000000 -1.000000
vn 0.000000 0.000000 -1.000000
vn 0.000000 0.000000 -1.000000
vn 0.000000 0.000000 -1.000000
vn 0.000000 -1.000000 0.000000
vn 0.000000 -1.000000 0.000000
vn 0.000000 -1.000000 0.000000
vn 0.000000 -1.000000 0.000000
vn 1.000000 0.000000 0.000000
vn 1.000000 0.000000 0.000000
vn 1.000000 0.000000 0.000000
vn 1.000000 0.000000 0.000000
vn -1.000000 0.000000 0.000000
vn -1.000000 0.000000 0.000000
vn -1.000000 0.000000 0.000000
vn -1.000000 0.000000 0.000000
s off
g pCube1
usemtl lambert4SG
f 3/15/1 4/16/2 6/17/3 5/18/4
usemtl lambert3SG
f 5/5/5 6/6/6 8/19/7 7/20/8
usemtl lambert2SG
f 7/7/9 8/8/10 2/10/11 1/9/12
usemtl lambert3SG
f 2/2/13 8/11/14 6/12/15 4/4/16
f 7/13/17 1/1/18 3/3/19 5/14/20
