# This file uses centimeters as units for non-parametric coordinates.

mtllib room.mtl
g default
v 20.758867 -6.009501 14.087568
v 20.758867 13.243295 14.087568
v -20.623859 13.243295 14.087568
v -20.623859 -6.009501 14.087568
v -20.814747 -5.934783 14.171413
v 20.814732 -5.934783 14.171413
v -20.814747 13.054394 14.171413
v 20.814732 13.054394 14.171413
v -20.814747 13.054394 -23.203613
v 20.814732 13.054394 -23.203613
v -20.814747 -5.934783 -23.203613
v 20.814732 -5.934783 -23.203613
vt 0.902420 0.072111
vt 0.902420 0.998833
vt 0.174997 0.998833
vt 0.174997 0.072111
vt 0.027067 0.980702
vt 0.027067 0.019298
vt 0.988471 0.019298
vt 0.988471 0.980702
vt 0.915570 0.077533
vt 0.912438 1.004541
vt 0.045264 1.000799
vt 0.048396 0.073791
vt -0.626700 1.626700
vt -0.626700 -0.626700
vt 1.626700 -0.626700
vt 1.626700 1.626700
vt 0.056361 0.984819
vt 0.056361 0.104704
vt 0.943639 0.104704
vt 0.943639 0.984819
vt 0.043905 0.996645
vt 0.043905 0.098473
vt 0.911333 0.098473
vt 0.911333 0.996645
vn 0.000000 0.000000 1.000000
vn 0.000000 0.000000 1.000000
vn 0.000000 0.000000 1.000000
vn 0.000000 0.000000 1.000000
vn 0.000000 1.000000 0.000000
vn 0.000000 1.000000 0.000000
vn 0.000000 1.000000 0.000000
vn 0.000000 1.000000 0.000000
vn 0.000000 0.000000 -1.000000
vn 0.000000 0.000000 -1.000000
vn 0.000000 0.000000 -1.000000
vn 0.000000 0.000000 -1.000000
vn 0.000000 -1.000000 0.000000
vn 0.000000 -1.000000 0.000000
vn 0.000000 -1.000000 0.000000
vn 0.000000 -1.000000 0.000000
vn 1.000000 0.000000 0.000000
vn 1.000000 0.000000 0.000000
vn 1.000000 0.000000 0.000000
vn 1.000000 0.000000 0.000000
vn -1.000000 0.000000 0.000000
vn -1.000000 0.000000 0.000000
vn -1.000000 0.000000 0.000000
vn -1.000000 0.000000 0.000000
s 1
g pCube11
usemtl lambert3SG
f 4/4/1 1/1/2 3/3/3
f 3/3/3 1/1/2 2/2/4
s 2
usemtl lambert4SG
f 9/5/5 7/6/6 10/8/7
f 10/8/7 7/6/6 8/7/8
s 3
usemtl lambert3SG
f 11/9/9 9/10/10 12/12/11
f 12/12/11 9/10/10 10/11/12
s 4
usemtl lambert2SG
f 5/13/13 11/14/14 6/16/15
f 6/16/15 11/14/14 12/15/16
s 5
usemtl lambert3SG
f 8/17/17 6/18/18 10/20/19
f 10/20/19 6/18/18 12/19/20
s 6
f 9/21/21 11/22/22 7/24/23
f 7/24/23 11/22/22 5/23/24
